<?xml version="1.0" encoding="UTF-8"?>
<svg width="36px" height="36px" viewBox="0 0 36 36" version="1.1" xmlns="http://www.w3.org/2000/svg" xmlns:xlink="http://www.w3.org/1999/xlink">
    <title>编组 52</title>
    <defs>
        <path d="M0.042,18.5223524 L0,7.0523524 C0,6.61171234 0.235879195,6.20477752 0.618,5.9853524 L10.706,0.101352396 C10.9341755,-0.0319759317 11.2160437,-0.033880447 11.446,0.0963523964 L22.219,6.2043524 C22.2221745,6.20289735 22.2258255,6.20289735 22.229,6.2043524 C22.2329378,6.20605381 22.2353518,6.21007719 22.2350339,6.2143524 L22.225,7.5293524 C22.2221218,7.74984433 22.1016034,7.9519796 21.909,8.0593524 L12.237,13.5533524 L12.237,24.9533524 L12.099,25.0793524 C11.6831668,25.4529207 11.074976,25.5185731 10.589,25.2423524 L0.67,19.5863524 C0.284718987,19.3701252 0.0447182551,18.9641463 0.041,18.5223524 L0.042,18.5223524 Z M16.661,5.6053524 L7.663,10.3863524 L7.663,21.1253524 L10.201,22.6813524 L10.215,11.7343524 L19.063,6.7633524 C19.1141325,6.73508524 19.145339,6.68076275 19.1440414,6.6223524 C19.1420767,6.56370152 19.1078062,6.510948 19.055,6.4853524 L17.253,5.5963524 C17.0656395,5.5042527 16.8454743,5.5075998 16.661,5.6053524 L16.661,5.6053524 Z" id="path-1"></path>
    </defs>
    <g id="页面-1" stroke="none" stroke-width="1" fill="none" fill-rule="evenodd">
        <g id="编组-52">
            <rect id="矩形" fill="#10162F" x="0" y="0" width="36" height="36" rx="4"></rect>
            <g id="编组" transform="translate(6.353000, 5.293648)">
                <path d="M15.771,14.2643524 L21.336,10.8373524 C21.5197238,10.722513 21.7530459,10.7232907 21.936,10.8393524 C22.121,10.9553524 22.2360582,11.1693524 22.2360582,11.3993524 L22.2360582,13.4033524 C22.2389856,13.6284554 22.1270276,13.8395547 21.939,13.9633524 L16.374,17.5033524 C16.1906453,17.6210456 15.9558999,17.6226027 15.771,17.5073524 C15.5797756,17.3843965 15.4652938,17.1716794 15.4679531,16.9443524 L15.4679531,14.8273524 C15.4679531,14.5953524 15.584,14.3803524 15.771,14.2643524 L15.771,14.2643524 Z" id="路径" fill="#FFFFFF" fill-rule="nonzero"></path>
                <path d="M20.302,20.9443524 L20.273,12.7063524 L17.401,13.9443524 L17.466,21.8463524 C17.4678658,22.0740627 17.5905861,22.283631 17.7882626,22.3966773 C17.9859391,22.5097235 18.2287949,22.509219 18.426,22.3953524 L19.981,21.5013524 C20.1798681,21.3865386 20.302,21.173982 20.301,20.9443524 L20.302,20.9443524 Z" id="路径" fill="#FFFFFF" fill-rule="nonzero"></path>
                <g fill="#FFFFFF" fill-rule="nonzero" id="形状">
                    <path d="M0.042,18.5223524 L0,7.0523524 C0,6.61171234 0.235879195,6.20477752 0.618,5.9853524 L10.706,0.101352396 C10.9341755,-0.0319759317 11.2160437,-0.033880447 11.446,0.0963523964 L22.219,6.2043524 C22.2221745,6.20289735 22.2258255,6.20289735 22.229,6.2043524 C22.2329378,6.20605381 22.2353518,6.21007719 22.2350339,6.2143524 L22.225,7.5293524 C22.2221218,7.74984433 22.1016034,7.9519796 21.909,8.0593524 L12.237,13.5533524 L12.237,24.9533524 L12.099,25.0793524 C11.6831668,25.4529207 11.074976,25.5185731 10.589,25.2423524 L0.67,19.5863524 C0.284718987,19.3701252 0.0447182551,18.9641463 0.041,18.5223524 L0.042,18.5223524 Z M16.661,5.6053524 L7.663,10.3863524 L7.663,21.1253524 L10.201,22.6813524 L10.215,11.7343524 L19.063,6.7633524 C19.1141325,6.73508524 19.145339,6.68076275 19.1440414,6.6223524 C19.1420767,6.56370152 19.1078062,6.510948 19.055,6.4853524 L17.253,5.5963524 C17.0656395,5.5042527 16.8454743,5.5075998 16.661,5.6053524 L16.661,5.6053524 Z"></path>
                </g>
                <g id="Clipped">
                    <mask id="mask-2" fill="white">
                        <use xlink:href="#path-1"></use>
                    </mask>
                    <g id="1gshq9cvqd"></g>
                    <g id="编组" mask="url(#mask-2)" fill="#FFFFFF" fill-rule="nonzero">
                        <g transform="translate(0.006000, 6.194352)" id="路径">
                            <polygon points="22.23 0 22.47 1.548 12.32 7.308 12.32 21.74 0.05 14.7 0 0.15 10.209 5.54 11.376 6.159"></polygon>
                        </g>
                    </g>
                </g>
            </g>
        </g>
    </g>
</svg>